<svg xmlns="http://www.w3.org/2000/svg" viewBox="0 0 200 160"><defs>
<filter id="blur" x="-30%" y="-80%" width="160%" height="260%"><feGaussianBlur stdDeviation="5"/></filter>
<filter id="soft" x="-20%" y="-20%" width="140%" height="140%"><feGaussianBlur stdDeviation="1.1"/></filter>
<linearGradient id="cylH" x1="0" y1="0" x2="0" y2="1">
 <stop offset="0" stop-color="#fff" stop-opacity=".42"/><stop offset=".28" stop-color="#fff" stop-opacity=".1"/>
 <stop offset=".55" stop-color="#000" stop-opacity="0"/><stop offset="1" stop-color="#000" stop-opacity=".38"/></linearGradient>
<linearGradient id="cylV" x1="0" y1="0" x2="1" y2="0">
 <stop offset="0" stop-color="#000" stop-opacity=".32"/><stop offset=".22" stop-color="#fff" stop-opacity=".28"/>
 <stop offset=".42" stop-color="#fff" stop-opacity="0"/><stop offset="1" stop-color="#000" stop-opacity=".4"/></linearGradient>
<radialGradient id="dome" cx=".32" cy=".28" r=".85">
 <stop offset="0" stop-color="#fff" stop-opacity=".55"/><stop offset=".35" stop-color="#fff" stop-opacity="0"/>
 <stop offset="1" stop-color="#000" stop-opacity=".35"/></radialGradient>
<radialGradient id="ball" cx=".35" cy=".3" r=".75">
 <stop offset="0" stop-color="#fff" stop-opacity=".6"/><stop offset=".4" stop-color="#fff" stop-opacity="0"/>
 <stop offset="1" stop-color="#000" stop-opacity=".35"/></radialGradient>
<linearGradient id="bun" x1="0" y1="0" x2="0" y2="1"><stop offset="0" stop-color="#F4B860"/><stop offset="1" stop-color="#B9661C"/></linearGradient>
<linearGradient id="bunLight" x1="0" y1="0" x2="0" y2="1"><stop offset="0" stop-color="#FBD08C"/><stop offset="1" stop-color="#D88A33"/></linearGradient>
<linearGradient id="sausage" x1="0" y1="0" x2="0" y2="1"><stop offset="0" stop-color="#E5684A"/><stop offset=".5" stop-color="#B8391F"/><stop offset="1" stop-color="#7E2414"/></linearGradient>
<linearGradient id="meat" x1="0" y1="0" x2="0" y2="1"><stop offset="0" stop-color="#9A5230"/><stop offset="1" stop-color="#4E2412"/></linearGradient>
<linearGradient id="tortilla" x1="0" y1="0" x2="0" y2="1"><stop offset="0" stop-color="#F6D696"/><stop offset=".55" stop-color="#E2AE5E"/><stop offset="1" stop-color="#B57A34"/></linearGradient>
<linearGradient id="tandir" x1="0" y1="0" x2="0" y2="1"><stop offset="0" stop-color="#EBB86A"/><stop offset=".55" stop-color="#C98A3C"/><stop offset="1" stop-color="#8E5420"/></linearGradient>
<radialGradient id="hole" cx=".5" cy=".5" r=".55"><stop offset="0" stop-color="#2E140A"/><stop offset=".7" stop-color="#5E2C14"/><stop offset="1" stop-color="#8A4A24"/></radialGradient>
<linearGradient id="cheese" x1="0" y1="0" x2="0" y2="1"><stop offset="0" stop-color="#FFD84D"/><stop offset="1" stop-color="#F0A500"/></linearGradient>
<linearGradient id="lettuce" x1="0" y1="0" x2="0" y2="1"><stop offset="0" stop-color="#8ED15A"/><stop offset="1" stop-color="#3E8E26"/></linearGradient>
<linearGradient id="tomato" x1="0" y1="0" x2="0" y2="1"><stop offset="0" stop-color="#FF6A4D"/><stop offset="1" stop-color="#C4281A"/></linearGradient>
<linearGradient id="red" x1="0" y1="0" x2="1" y2="0"><stop offset="0" stop-color="#A3140F"/><stop offset=".3" stop-color="#F0392C"/><stop offset=".5" stop-color="#D7261E"/><stop offset="1" stop-color="#8E120C"/></linearGradient>
<linearGradient id="fry" x1="0" y1="0" x2="1" y2="0"><stop offset="0" stop-color="#E9A100"/><stop offset=".4" stop-color="#FFE07A"/><stop offset="1" stop-color="#E39A00"/></linearGradient>
<radialGradient id="crispy" cx=".35" cy=".3" r=".8"><stop offset="0" stop-color="#F2A452"/><stop offset=".6" stop-color="#C46A26"/><stop offset="1" stop-color="#8A4214"/></radialGradient>
</defs><g transform="translate(0 6) scale(1 .95)"><ellipse cx="100" cy="148" rx="78" ry="9" fill="#000" opacity="0.45" filter="url(#blur)"/><rect x="30" y="114" width="140" height="28" rx="14" fill="url(#bun)"/><rect x="30" y="114" width="140" height="28" rx="14" fill="url(#cylH)"/><rect x="22" y="98" width="156" height="24" rx="12" fill="url(#meat)"/><rect x="22" y="98" width="156" height="24" rx="12" fill="url(#cylH)"/><path d="M36 106 h18" stroke="#2E140A" stroke-width="2.4" stroke-linecap="round" opacity=".5"/><path d="M70 106 h24" stroke="#2E140A" stroke-width="2.4" stroke-linecap="round" opacity=".5"/><path d="M112 106 h18" stroke="#2E140A" stroke-width="2.4" stroke-linecap="round" opacity=".5"/><path d="M146 106 h16" stroke="#2E140A" stroke-width="2.4" stroke-linecap="round" opacity=".5"/><path d="M34 103 H166" stroke="#fff" stroke-width="2" opacity=".18" stroke-linecap="round"/><path d="M24 92 H176 L174 102 L160 96 L150 113 L138 96 L122 108 L108 96 L92 113 L78 96 L62 108 L48 96 L36 106 L26 100 Z" fill="url(#cheese)"/><path d="M28 94 H172" stroke="#fff" stroke-width="1.6" opacity=".5"/><path d="M28 88 q12 -8 24 0 t24 0 t24 0 t24 0 t24 0 t24 0" stroke="#7A2414" stroke-width="6" fill="none" stroke-linecap="round" stroke-linejoin="round" transform="translate(0 1.6)" opacity=".7"/><path d="M28 88 q12 -8 24 0 t24 0 t24 0 t24 0 t24 0 t24 0" stroke="#C2452D" stroke-width="6" fill="none" stroke-linecap="round" stroke-linejoin="round"/><path d="M28 88 q12 -8 24 0 t24 0 t24 0 t24 0 t24 0 t24 0" stroke="#fff" stroke-width="1.3" fill="none" stroke-linecap="round" opacity=".55" transform="translate(-.6 -1.4)"/><rect x="22" y="70" width="156" height="24" rx="12" fill="url(#meat)"/><rect x="22" y="70" width="156" height="24" rx="12" fill="url(#cylH)"/><path d="M36 78 h18" stroke="#2E140A" stroke-width="2.4" stroke-linecap="round" opacity=".5"/><path d="M70 78 h24" stroke="#2E140A" stroke-width="2.4" stroke-linecap="round" opacity=".5"/><path d="M112 78 h18" stroke="#2E140A" stroke-width="2.4" stroke-linecap="round" opacity=".5"/><path d="M146 78 h16" stroke="#2E140A" stroke-width="2.4" stroke-linecap="round" opacity=".5"/><path d="M34 75 H166" stroke="#fff" stroke-width="2" opacity=".18" stroke-linecap="round"/><path d="M24 64 H176 L174 74 L160 68 L150 85 L138 68 L122 80 L108 68 L92 85 L78 68 L62 80 L48 68 L36 78 L26 72 Z" fill="url(#cheese)"/><path d="M28 66 H172" stroke="#fff" stroke-width="1.6" opacity=".5"/><path d="M18 60 q8 10 16 0 q8 10 16 0 q8 10 16 0 q8 10 16 0 q8 10 16 0 q8 10 16 0 q8 10 16 0 q8 10 16 0 q8 10 16 0 q8 10 16 0 v-7 H18 Z" fill="url(#lettuce)"/><g transform="translate(0 -18)"><path d="M24 76 C24 20 176 20 176 76 Q176 82 170 82 H30 Q24 82 24 76 Z" fill="url(#bun)"/><path d="M24 76 C24 20 176 20 176 76 Q176 82 170 82 H30 Q24 82 24 76 Z" fill="url(#dome)"/><path d="M46 50 C58 34 84 28 104 28" stroke="#FFE3B0" stroke-width="5" stroke-linecap="round" fill="none" opacity=".8"/><g transform="rotate(-20 72 50)"><ellipse cx="72" cy="51" rx="4.2" ry="2.3" fill="#9A5A1A" opacity=".35"/><ellipse cx="72" cy="50" rx="4" ry="2.2" fill="#FFF3D8"/></g><g transform="rotate(10 98 42)"><ellipse cx="98" cy="43" rx="4.2" ry="2.3" fill="#9A5A1A" opacity=".35"/><ellipse cx="98" cy="42" rx="4" ry="2.2" fill="#FFF3D8"/></g><g transform="rotate(25 124 46)"><ellipse cx="124" cy="47" rx="4.2" ry="2.3" fill="#9A5A1A" opacity=".35"/><ellipse cx="124" cy="46" rx="4" ry="2.2" fill="#FFF3D8"/></g><g transform="rotate(-10 148 58)"><ellipse cx="148" cy="59" rx="4.2" ry="2.3" fill="#9A5A1A" opacity=".35"/><ellipse cx="148" cy="58" rx="4" ry="2.2" fill="#FFF3D8"/></g><g transform="rotate(30 86 62)"><ellipse cx="86" cy="63" rx="4.2" ry="2.3" fill="#9A5A1A" opacity=".35"/><ellipse cx="86" cy="62" rx="4" ry="2.2" fill="#FFF3D8"/></g><g transform="rotate(-25 114 60)"><ellipse cx="114" cy="61" rx="4.2" ry="2.3" fill="#9A5A1A" opacity=".35"/><ellipse cx="114" cy="60" rx="4" ry="2.2" fill="#FFF3D8"/></g><g transform="rotate(15 56 64)"><ellipse cx="56" cy="65" rx="4.2" ry="2.3" fill="#9A5A1A" opacity=".35"/><ellipse cx="56" cy="64" rx="4" ry="2.2" fill="#FFF3D8"/></g><g transform="rotate(5 136 70)"><ellipse cx="136" cy="71" rx="4.2" ry="2.3" fill="#9A5A1A" opacity=".35"/><ellipse cx="136" cy="70" rx="4" ry="2.2" fill="#FFF3D8"/></g></g></g><line x1="100" y1="2" x2="100" y2="40" stroke="#B88A55" stroke-width="3"/><path d="M100 4 h24 l-6 7 l6 7 h-24 Z" fill="url(#red)"/></svg>
