<svg xmlns="http://www.w3.org/2000/svg" viewBox="0 0 200 160"><defs>
<filter id="blur" x="-30%" y="-80%" width="160%" height="260%"><feGaussianBlur stdDeviation="5"/></filter>
<filter id="soft" x="-20%" y="-20%" width="140%" height="140%"><feGaussianBlur stdDeviation="1.1"/></filter>
<linearGradient id="cylH" x1="0" y1="0" x2="0" y2="1">
 <stop offset="0" stop-color="#fff" stop-opacity=".42"/><stop offset=".28" stop-color="#fff" stop-opacity=".1"/>
 <stop offset=".55" stop-color="#000" stop-opacity="0"/><stop offset="1" stop-color="#000" stop-opacity=".38"/></linearGradient>
<linearGradient id="cylV" x1="0" y1="0" x2="1" y2="0">
 <stop offset="0" stop-color="#000" stop-opacity=".32"/><stop offset=".22" stop-color="#fff" stop-opacity=".28"/>
 <stop offset=".42" stop-color="#fff" stop-opacity="0"/><stop offset="1" stop-color="#000" stop-opacity=".4"/></linearGradient>
<radialGradient id="dome" cx=".32" cy=".28" r=".85">
 <stop offset="0" stop-color="#fff" stop-opacity=".55"/><stop offset=".35" stop-color="#fff" stop-opacity="0"/>
 <stop offset="1" stop-color="#000" stop-opacity=".35"/></radialGradient>
<radialGradient id="ball" cx=".35" cy=".3" r=".75">
 <stop offset="0" stop-color="#fff" stop-opacity=".6"/><stop offset=".4" stop-color="#fff" stop-opacity="0"/>
 <stop offset="1" stop-color="#000" stop-opacity=".35"/></radialGradient>
<linearGradient id="bun" x1="0" y1="0" x2="0" y2="1"><stop offset="0" stop-color="#F4B860"/><stop offset="1" stop-color="#B9661C"/></linearGradient>
<linearGradient id="bunLight" x1="0" y1="0" x2="0" y2="1"><stop offset="0" stop-color="#FBD08C"/><stop offset="1" stop-color="#D88A33"/></linearGradient>
<linearGradient id="sausage" x1="0" y1="0" x2="0" y2="1"><stop offset="0" stop-color="#E5684A"/><stop offset=".5" stop-color="#B8391F"/><stop offset="1" stop-color="#7E2414"/></linearGradient>
<linearGradient id="meat" x1="0" y1="0" x2="0" y2="1"><stop offset="0" stop-color="#9A5230"/><stop offset="1" stop-color="#4E2412"/></linearGradient>
<linearGradient id="tortilla" x1="0" y1="0" x2="0" y2="1"><stop offset="0" stop-color="#F6D696"/><stop offset=".55" stop-color="#E2AE5E"/><stop offset="1" stop-color="#B57A34"/></linearGradient>
<linearGradient id="tandir" x1="0" y1="0" x2="0" y2="1"><stop offset="0" stop-color="#EBB86A"/><stop offset=".55" stop-color="#C98A3C"/><stop offset="1" stop-color="#8E5420"/></linearGradient>
<radialGradient id="hole" cx=".5" cy=".5" r=".55"><stop offset="0" stop-color="#2E140A"/><stop offset=".7" stop-color="#5E2C14"/><stop offset="1" stop-color="#8A4A24"/></radialGradient>
<linearGradient id="cheese" x1="0" y1="0" x2="0" y2="1"><stop offset="0" stop-color="#FFD84D"/><stop offset="1" stop-color="#F0A500"/></linearGradient>
<linearGradient id="lettuce" x1="0" y1="0" x2="0" y2="1"><stop offset="0" stop-color="#8ED15A"/><stop offset="1" stop-color="#3E8E26"/></linearGradient>
<linearGradient id="tomato" x1="0" y1="0" x2="0" y2="1"><stop offset="0" stop-color="#FF6A4D"/><stop offset="1" stop-color="#C4281A"/></linearGradient>
<linearGradient id="red" x1="0" y1="0" x2="1" y2="0"><stop offset="0" stop-color="#A3140F"/><stop offset=".3" stop-color="#F0392C"/><stop offset=".5" stop-color="#D7261E"/><stop offset="1" stop-color="#8E120C"/></linearGradient>
<linearGradient id="fry" x1="0" y1="0" x2="1" y2="0"><stop offset="0" stop-color="#E9A100"/><stop offset=".4" stop-color="#FFE07A"/><stop offset="1" stop-color="#E39A00"/></linearGradient>
<radialGradient id="crispy" cx=".35" cy=".3" r=".8"><stop offset="0" stop-color="#F2A452"/><stop offset=".6" stop-color="#C46A26"/><stop offset="1" stop-color="#8A4214"/></radialGradient>
</defs><ellipse cx="100" cy="140" rx="92" ry="9" fill="#000" opacity="0.45" filter="url(#blur)"/><rect x="10" y="104" width="180" height="26" rx="13" fill="url(#bun)"/><rect x="10" y="104" width="180" height="26" rx="13" fill="url(#cylH)"/><rect x="6" y="88" width="188" height="20" rx="10" fill="url(#meat)"/><rect x="6" y="88" width="188" height="20" rx="10" fill="url(#cylH)"/><path d="M8 84 H192 L190 94 L178 88 L168 100 L154 88 L140 98 L126 88 L112 100 L98 88 L84 98 L70 88 L56 100 L42 88 L28 96 L10 92 Z" fill="url(#cheese)"/><path d="M4 80 q8 9 16 0 q8 9 16 0 q8 9 16 0 q8 9 16 0 q8 9 16 0 q8 9 16 0 q8 9 16 0 q8 9 16 0 q8 9 16 0 q8 9 16 0 q8 9 16 0 q8 9 16 0 v-6 H4 Z" fill="url(#lettuce)"/><path d="M10 76 C10 36 190 36 190 76 Q190 80 186 80 H14 Q10 80 10 76 Z" fill="url(#bun)"/><path d="M10 76 C10 36 190 36 190 76 Q190 80 186 80 H14 Q10 80 10 76 Z" fill="url(#dome)"/><path d="M34 56 C60 46 100 44 130 46" stroke="#FFE3B0" stroke-width="5" stroke-linecap="round" fill="none" opacity=".8"/><ellipse cx="50" cy="64" rx="3.6" ry="2" fill="#FFF3D8"/><ellipse cx="80" cy="56" rx="3.6" ry="2" fill="#FFF3D8"/><ellipse cx="110" cy="54" rx="3.6" ry="2" fill="#FFF3D8"/><ellipse cx="140" cy="58" rx="3.6" ry="2" fill="#FFF3D8"/><ellipse cx="166" cy="66" rx="3.6" ry="2" fill="#FFF3D8"/><ellipse cx="96" cy="68" rx="3.6" ry="2" fill="#FFF3D8"/><ellipse cx="126" cy="68" rx="3.6" ry="2" fill="#FFF3D8"/></svg>
