<svg xmlns="http://www.w3.org/2000/svg" viewBox="0 0 200 160"><defs>
<filter id="blur" x="-30%" y="-80%" width="160%" height="260%"><feGaussianBlur stdDeviation="5"/></filter>
<linearGradient id="cup" x1="0" y1="0" x2="1" y2="0">
 <stop offset="0" stop-color="#d9d4cc"/><stop offset=".25" stop-color="#fbfaf7"/><stop offset=".6" stop-color="#ece8e1"/><stop offset="1" stop-color="#b9b3aa"/></linearGradient>
<radialGradient id="sauce" cx=".4" cy=".35" r=".75">
 <stop offset="0" stop-color="#ff7a5c"/><stop offset=".6" stop-color="#d9261c"/><stop offset="1" stop-color="#8f120c"/></radialGradient>
<linearGradient id="rim" x1="0" y1="0" x2="0" y2="1"><stop offset="0" stop-color="#fff"/><stop offset="1" stop-color="#cfc9bf"/></linearGradient>
</defs>
<ellipse cx="100" cy="138" rx="62" ry="10" fill="#000" opacity=".35" filter="url(#blur)"/>
<path d="M44 62 L56 128 Q100 146 144 128 L156 62 Z" fill="url(#cup)"/>
<path d="M56 128 Q100 146 144 128" fill="none" stroke="#a8a197" stroke-width="2"/>
<g opacity=".35" stroke="#fff" stroke-width="3" stroke-linecap="round"><path d="M62 74 L70 124"/></g>
<ellipse cx="100" cy="62" rx="56" ry="17" fill="url(#rim)"/>
<ellipse cx="100" cy="63" rx="49" ry="13" fill="url(#sauce)"/>
<path d="M72 60 q14 -9 30 -2 q12 5 24 -1" fill="none" stroke="#ff7a5c" stroke-width="4" stroke-linecap="round" opacity=".8"/>
<ellipse cx="84" cy="58" rx="9" ry="3" fill="#fff" opacity=".55"/>

</svg>
